<mxfile host="Electron" agent="Mozilla/5.0 (Windows NT 10.0; Win64; x64) AppleWebKit/537.36 (KHTML, like Gecko) draw.io/24.7.17 Chrome/128.0.6613.36 Electron/32.0.1 Safari/537.36" version="24.7.17">
  <diagram name="Pagina-1" id="dgDKabfEF81DS5SRIKtF">
    <mxGraphModel dx="473" dy="274" grid="1" gridSize="10" guides="1" tooltips="1" connect="1" arrows="1" fold="1" page="1" pageScale="1" pageWidth="827" pageHeight="1169" math="1" shadow="0">
      <root>
        <mxCell id="0" />
        <mxCell id="1" parent="0" />
        <mxCell id="EozG7yviNbBRq5cp5qRU-3" style="edgeStyle=orthogonalEdgeStyle;rounded=0;orthogonalLoop=1;jettySize=auto;html=1;entryX=0;entryY=0.5;entryDx=0;entryDy=0;" edge="1" parent="1" source="EozG7yviNbBRq5cp5qRU-1" target="EozG7yviNbBRq5cp5qRU-2">
          <mxGeometry relative="1" as="geometry" />
        </mxCell>
        <mxCell id="EozG7yviNbBRq5cp5qRU-1" value="\(e\)" style="text;html=1;align=center;verticalAlign=middle;whiteSpace=wrap;rounded=0;fontSize=20;" vertex="1" parent="1">
          <mxGeometry x="330" y="410" width="20" height="20" as="geometry" />
        </mxCell>
        <mxCell id="EozG7yviNbBRq5cp5qRU-2" value="\(K_pN\)" style="whiteSpace=wrap;html=1;aspect=fixed;fillColor=none;" vertex="1" parent="1">
          <mxGeometry x="400" y="400" width="40" height="40" as="geometry" />
        </mxCell>
        <mxCell id="EozG7yviNbBRq5cp5qRU-4" value="" style="endArrow=none;html=1;rounded=0;exitX=1;exitY=0.5;exitDx=0;exitDy=0;" edge="1" parent="1" source="EozG7yviNbBRq5cp5qRU-2" target="EozG7yviNbBRq5cp5qRU-5">
          <mxGeometry width="50" height="50" relative="1" as="geometry">
            <mxPoint x="440" y="450" as="sourcePoint" />
            <mxPoint x="480" y="420" as="targetPoint" />
          </mxGeometry>
        </mxCell>
        <mxCell id="EozG7yviNbBRq5cp5qRU-5" value="" style="shape=waypoint;sketch=0;fillStyle=solid;size=6;pointerEvents=1;points=[];fillColor=none;resizable=0;rotatable=0;perimeter=centerPerimeter;snapToPoint=1;" vertex="1" parent="1">
          <mxGeometry x="470" y="410" width="20" height="20" as="geometry" />
        </mxCell>
        <mxCell id="EozG7yviNbBRq5cp5qRU-6" value="" style="endArrow=classic;html=1;rounded=0;endFill=1;entryX=0.5;entryY=0;entryDx=0;entryDy=0;" edge="1" parent="1" target="EozG7yviNbBRq5cp5qRU-9">
          <mxGeometry width="50" height="50" relative="1" as="geometry">
            <mxPoint x="480" y="420" as="sourcePoint" />
            <mxPoint x="480" y="360" as="targetPoint" />
            <Array as="points">
              <mxPoint x="480" y="360" />
              <mxPoint x="620" y="360" />
            </Array>
          </mxGeometry>
        </mxCell>
        <mxCell id="EozG7yviNbBRq5cp5qRU-7" value="" style="endArrow=none;html=1;rounded=0;exitX=0;exitY=0.5;exitDx=0;exitDy=0;endFill=0;" edge="1" parent="1" source="EozG7yviNbBRq5cp5qRU-8">
          <mxGeometry width="50" height="50" relative="1" as="geometry">
            <mxPoint x="479.83" y="480" as="sourcePoint" />
            <mxPoint x="479.83" y="420" as="targetPoint" />
            <Array as="points">
              <mxPoint x="480" y="480" />
            </Array>
          </mxGeometry>
        </mxCell>
        <mxCell id="EozG7yviNbBRq5cp5qRU-10" style="edgeStyle=orthogonalEdgeStyle;rounded=0;orthogonalLoop=1;jettySize=auto;html=1;entryX=0.5;entryY=1;entryDx=0;entryDy=0;" edge="1" parent="1" source="EozG7yviNbBRq5cp5qRU-8" target="EozG7yviNbBRq5cp5qRU-9">
          <mxGeometry relative="1" as="geometry" />
        </mxCell>
        <mxCell id="EozG7yviNbBRq5cp5qRU-8" value="\(\dfrac{1}{1+\frac{T_d}{N}s}\)" style="whiteSpace=wrap;html=1;aspect=fixed;fillColor=none;" vertex="1" parent="1">
          <mxGeometry x="520" y="450" width="60" height="60" as="geometry" />
        </mxCell>
        <mxCell id="EozG7yviNbBRq5cp5qRU-14" style="edgeStyle=orthogonalEdgeStyle;rounded=0;orthogonalLoop=1;jettySize=auto;html=1;entryX=0;entryY=0.5;entryDx=0;entryDy=0;" edge="1" parent="1" source="EozG7yviNbBRq5cp5qRU-9" target="EozG7yviNbBRq5cp5qRU-13">
          <mxGeometry relative="1" as="geometry" />
        </mxCell>
        <mxCell id="EozG7yviNbBRq5cp5qRU-9" value="" style="ellipse;whiteSpace=wrap;html=1;aspect=fixed;fillColor=none;" vertex="1" parent="1">
          <mxGeometry x="610" y="410" width="20" height="20" as="geometry" />
        </mxCell>
        <mxCell id="EozG7yviNbBRq5cp5qRU-11" value="\(+\)" style="text;html=1;align=center;verticalAlign=middle;whiteSpace=wrap;rounded=0;fontSize=20;" vertex="1" parent="1">
          <mxGeometry x="590" y="390" width="20" height="20" as="geometry" />
        </mxCell>
        <mxCell id="EozG7yviNbBRq5cp5qRU-12" value="\(-\)" style="text;html=1;align=center;verticalAlign=middle;whiteSpace=wrap;rounded=0;fontSize=20;" vertex="1" parent="1">
          <mxGeometry x="590" y="430" width="20" height="20" as="geometry" />
        </mxCell>
        <mxCell id="EozG7yviNbBRq5cp5qRU-13" value="\(u_d\)" style="text;html=1;align=center;verticalAlign=middle;whiteSpace=wrap;rounded=0;fontSize=20;" vertex="1" parent="1">
          <mxGeometry x="680" y="400" width="30" height="40" as="geometry" />
        </mxCell>
      </root>
    </mxGraphModel>
  </diagram>
</mxfile>
